<svg xmlns="http://www.w3.org/2000/svg" version="1.1" xmlns:xlink="http://www.w3.org/1999/xlink" xmlns:svgjs="http://svgjs.dev/svgjs" width="250" height="1080" preserveAspectRatio="none" viewBox="0 0 250 1080"><g mask="url(&quot;#SvgjsMask1006&quot;)" fill="none"><g mask="url(&quot;#SvgjsMask1007&quot;)"><path d="M195.5 149.5L241.5 149.5" stroke-width="3.83" stroke="rgba(97, 175, 223, 1)"></path><path d="M189.75 149.5 a5.75 5.75 0 1 0 11.5 0 a5.75 5.75 0 1 0 -11.5 0zM235.75 149.5 a5.75 5.75 0 1 0 11.5 0 a5.75 5.75 0 1 0 -11.5 0z" fill="rgba(97, 175, 223, 1)"></path><path d="M126.5 34.5L103.5 11.5L11.5 11.5" stroke-width="3.83" stroke="rgba(97, 175, 223, 1)"></path><path d="M120.75 34.5 a5.75 5.75 0 1 0 11.5 0 a5.75 5.75 0 1 0 -11.5 0zM5.75 11.5 a5.75 5.75 0 1 0 11.5 0 a5.75 5.75 0 1 0 -11.5 0z" fill="rgba(97, 175, 223, 1)"></path><path d="M103.5 402.5L241.5 264.5L241.5 218.5L57.5 34.5L11.5 34.5" stroke-width="3.83" stroke="rgba(97, 175, 223, 1)"></path><path d="M97.75 402.5 a5.75 5.75 0 1 0 11.5 0 a5.75 5.75 0 1 0 -11.5 0zM5.75 34.5 a5.75 5.75 0 1 0 11.5 0 a5.75 5.75 0 1 0 -11.5 0z" fill="rgba(97, 175, 223, 1)"></path><path d="M195.5 1046.5L172.5 1069.5L11.5 1069.5" stroke-width="3.83" stroke="rgba(97, 175, 223, 1)"></path><path d="M189.75 1046.5 a5.75 5.75 0 1 0 11.5 0 a5.75 5.75 0 1 0 -11.5 0zM5.75 1069.5 a5.75 5.75 0 1 0 11.5 0 a5.75 5.75 0 1 0 -11.5 0z" fill="rgba(97, 175, 223, 1)"></path><path d="M103.5 977.5L11.5 977.5" stroke-width="3.83" stroke="rgba(97, 175, 223, 1)"></path><path d="M97.75 977.5 a5.75 5.75 0 1 0 11.5 0 a5.75 5.75 0 1 0 -11.5 0zM5.75 977.5 a5.75 5.75 0 1 0 11.5 0 a5.75 5.75 0 1 0 -11.5 0z" fill="rgba(97, 175, 223, 1)"></path><path d="M34.5 448.5L11.5 471.5L11.5 586.5L241.5 816.5L241.5 885.5" stroke-width="3.83" stroke="rgba(97, 175, 223, 1)"></path><path d="M28.75 448.5 a5.75 5.75 0 1 0 11.5 0 a5.75 5.75 0 1 0 -11.5 0zM235.75 885.5 a5.75 5.75 0 1 0 11.5 0 a5.75 5.75 0 1 0 -11.5 0z" fill="rgba(97, 175, 223, 1)"></path><path d="M126.5 655.5L149.5 655.5L241.5 747.5L241.5 793.5" stroke-width="3.83" stroke="rgba(97, 175, 223, 1)"></path><path d="M120.75 655.5 a5.75 5.75 0 1 0 11.5 0 a5.75 5.75 0 1 0 -11.5 0zM235.75 793.5 a5.75 5.75 0 1 0 11.5 0 a5.75 5.75 0 1 0 -11.5 0z" fill="rgba(97, 175, 223, 1)"></path><path d="M241.5 1046.5L172.5 977.5L126.5 977.5L11.5 862.5L11.5 816.5L103.5 724.5L103.5 701.5L57.5 655.5" stroke-width="3.83" stroke="rgba(97, 175, 223, 1)"></path><path d="M235.75 1046.5 a5.75 5.75 0 1 0 11.5 0 a5.75 5.75 0 1 0 -11.5 0zM51.75 655.5 a5.75 5.75 0 1 0 11.5 0 a5.75 5.75 0 1 0 -11.5 0z" fill="rgba(97, 175, 223, 1)"></path><path d="M172.5 793.5L172.5 770.5L126.5 724.5" stroke-width="3.83" stroke="rgba(97, 175, 223, 1)"></path><path d="M166.75 793.5 a5.75 5.75 0 1 0 11.5 0 a5.75 5.75 0 1 0 -11.5 0zM120.75 724.5 a5.75 5.75 0 1 0 11.5 0 a5.75 5.75 0 1 0 -11.5 0z" fill="rgba(97, 175, 223, 1)"></path><path d="M57.5 149.5L11.5 195.5L11.5 448.5" stroke-width="3.83" stroke="rgba(97, 175, 223, 1)"></path><path d="M51.75 149.5 a5.75 5.75 0 1 0 11.5 0 a5.75 5.75 0 1 0 -11.5 0zM5.75 448.5 a5.75 5.75 0 1 0 11.5 0 a5.75 5.75 0 1 0 -11.5 0z" fill="rgba(97, 175, 223, 1)"></path><path d="M149.5 103.5L80.5 34.5" stroke-width="3.83" stroke="rgba(97, 175, 223, 1)"></path><path d="M143.75 103.5 a5.75 5.75 0 1 0 11.5 0 a5.75 5.75 0 1 0 -11.5 0zM74.75 34.5 a5.75 5.75 0 1 0 11.5 0 a5.75 5.75 0 1 0 -11.5 0z" fill="rgba(97, 175, 223, 1)"></path><path d="M218.5 747.5L195.5 747.5L126.5 678.5" stroke-width="3.83" stroke="rgba(97, 175, 223, 1)"></path><path d="M212.75 747.5 a5.75 5.75 0 1 0 11.5 0 a5.75 5.75 0 1 0 -11.5 0zM120.75 678.5 a5.75 5.75 0 1 0 11.5 0 a5.75 5.75 0 1 0 -11.5 0z" fill="rgba(97, 175, 223, 1)"></path><path d="M218.5 448.5L218.5 678.5L241.5 701.5L241.5 724.5" stroke-width="3.83" stroke="rgba(97, 175, 223, 1)"></path><path d="M212.75 448.5 a5.75 5.75 0 1 0 11.5 0 a5.75 5.75 0 1 0 -11.5 0zM235.75 724.5 a5.75 5.75 0 1 0 11.5 0 a5.75 5.75 0 1 0 -11.5 0z" fill="rgba(97, 175, 223, 1)"></path><path d="M80.5 241.5L172.5 241.5L195.5 264.5L195.5 287.5L57.5 425.5L57.5 586.5" stroke-width="3.83" stroke="rgba(97, 175, 223, 1)"></path><path d="M74.75 241.5 a5.75 5.75 0 1 0 11.5 0 a5.75 5.75 0 1 0 -11.5 0zM51.75 586.5 a5.75 5.75 0 1 0 11.5 0 a5.75 5.75 0 1 0 -11.5 0z" fill="rgba(97, 175, 223, 1)"></path><path d="M218.5 862.5L103.5 747.5" stroke-width="3.83" stroke="rgba(97, 175, 223, 1)"></path><path d="M212.75 862.5 a5.75 5.75 0 1 0 11.5 0 a5.75 5.75 0 1 0 -11.5 0zM97.75 747.5 a5.75 5.75 0 1 0 11.5 0 a5.75 5.75 0 1 0 -11.5 0z" fill="rgba(97, 175, 223, 1)"></path><path d="M172.5 862.5L172.5 839.5L103.5 770.5L80.5 770.5L34.5 816.5L34.5 862.5L126.5 954.5L241.5 954.5" stroke-width="3.83" stroke="rgba(97, 175, 223, 1)"></path><path d="M166.75 862.5 a5.75 5.75 0 1 0 11.5 0 a5.75 5.75 0 1 0 -11.5 0zM235.75 954.5 a5.75 5.75 0 1 0 11.5 0 a5.75 5.75 0 1 0 -11.5 0z" fill="rgba(97, 175, 223, 1)"></path><path d="M195.5 885.5L218.5 885.5L241.5 908.5L241.5 931.5" stroke-width="3.83" stroke="rgba(97, 175, 223, 1)"></path><path d="M189.75 885.5 a5.75 5.75 0 1 0 11.5 0 a5.75 5.75 0 1 0 -11.5 0zM235.75 931.5 a5.75 5.75 0 1 0 11.5 0 a5.75 5.75 0 1 0 -11.5 0z" fill="rgba(97, 175, 223, 1)"></path><path d="M195.5 1023.5L172.5 1000.5L11.5 1000.5" stroke-width="3.83" stroke="rgba(97, 175, 223, 1)"></path><path d="M189.75 1023.5 a5.75 5.75 0 1 0 11.5 0 a5.75 5.75 0 1 0 -11.5 0zM5.75 1000.5 a5.75 5.75 0 1 0 11.5 0 a5.75 5.75 0 1 0 -11.5 0z" fill="rgba(97, 175, 223, 1)"></path><path d="M34.5 241.5L34.5 195.5L103.5 126.5L126.5 126.5L218.5 218.5L218.5 241.5" stroke-width="3.83" stroke="rgba(97, 175, 223, 1)"></path><path d="M28.75 241.5 a5.75 5.75 0 1 0 11.5 0 a5.75 5.75 0 1 0 -11.5 0zM212.75 241.5 a5.75 5.75 0 1 0 11.5 0 a5.75 5.75 0 1 0 -11.5 0z" fill="rgba(97, 175, 223, 1)"></path><path d="M126.5 862.5L57.5 862.5" stroke-width="3.83" stroke="rgba(97, 175, 223, 1)"></path><path d="M120.75 862.5 a5.75 5.75 0 1 0 11.5 0 a5.75 5.75 0 1 0 -11.5 0zM51.75 862.5 a5.75 5.75 0 1 0 11.5 0 a5.75 5.75 0 1 0 -11.5 0z" fill="rgba(97, 175, 223, 1)"></path><path d="M149.5 218.5L149.5 172.5L126.5 149.5L103.5 149.5L57.5 195.5L57.5 402.5L34.5 425.5" stroke-width="3.83" stroke="rgba(97, 175, 223, 1)"></path><path d="M143.75 218.5 a5.75 5.75 0 1 0 11.5 0 a5.75 5.75 0 1 0 -11.5 0zM28.75 425.5 a5.75 5.75 0 1 0 11.5 0 a5.75 5.75 0 1 0 -11.5 0z" fill="rgba(97, 175, 223, 1)"></path><path d="M241.5 977.5L195.5 977.5" stroke-width="3.83" stroke="rgba(97, 175, 223, 1)"></path><path d="M235.75 977.5 a5.75 5.75 0 1 0 11.5 0 a5.75 5.75 0 1 0 -11.5 0zM189.75 977.5 a5.75 5.75 0 1 0 11.5 0 a5.75 5.75 0 1 0 -11.5 0z" fill="rgba(97, 175, 223, 1)"></path><path d="M57.5 931.5L34.5 954.5L11.5 954.5" stroke-width="3.83" stroke="rgba(97, 175, 223, 1)"></path><path d="M51.75 931.5 a5.75 5.75 0 1 0 11.5 0 a5.75 5.75 0 1 0 -11.5 0zM5.75 954.5 a5.75 5.75 0 1 0 11.5 0 a5.75 5.75 0 1 0 -11.5 0z" fill="rgba(97, 175, 223, 1)"></path><path d="M241.5 379.5L149.5 379.5L80.5 448.5L80.5 632.5" stroke-width="3.83" stroke="rgba(97, 175, 223, 1)"></path><path d="M235.75 379.5 a5.75 5.75 0 1 0 11.5 0 a5.75 5.75 0 1 0 -11.5 0zM74.75 632.5 a5.75 5.75 0 1 0 11.5 0 a5.75 5.75 0 1 0 -11.5 0z" fill="rgba(97, 175, 223, 1)"></path><path d="M34.5 80.5L11.5 103.5L11.5 126.5L34.5 149.5" stroke-width="3.83" stroke="rgba(97, 175, 223, 1)"></path><path d="M28.75 80.5 a5.75 5.75 0 1 0 11.5 0 a5.75 5.75 0 1 0 -11.5 0zM28.75 149.5 a5.75 5.75 0 1 0 11.5 0 a5.75 5.75 0 1 0 -11.5 0z" fill="rgba(97, 175, 223, 1)"></path><path d="M195.5 126.5L241.5 80.5L241.5 11.5" stroke-width="3.83" stroke="rgba(97, 175, 223, 1)"></path><path d="M189.75 126.5 a5.75 5.75 0 1 0 11.5 0 a5.75 5.75 0 1 0 -11.5 0zM235.75 11.5 a5.75 5.75 0 1 0 11.5 0 a5.75 5.75 0 1 0 -11.5 0z" fill="rgba(97, 175, 223, 1)"></path><path d="M149.5 563.5L103.5 563.5" stroke-width="3.83" stroke="rgba(97, 175, 223, 1)"></path><path d="M143.75 563.5 a5.75 5.75 0 1 0 11.5 0 a5.75 5.75 0 1 0 -11.5 0zM97.75 563.5 a5.75 5.75 0 1 0 11.5 0 a5.75 5.75 0 1 0 -11.5 0z" fill="rgba(97, 175, 223, 1)"></path><path d="M149.5 839.5L103.5 793.5L80.5 793.5L57.5 816.5L57.5 839.5" stroke-width="3.83" stroke="rgba(97, 175, 223, 1)"></path><path d="M143.75 839.5 a5.75 5.75 0 1 0 11.5 0 a5.75 5.75 0 1 0 -11.5 0zM51.75 839.5 a5.75 5.75 0 1 0 11.5 0 a5.75 5.75 0 1 0 -11.5 0z" fill="rgba(97, 175, 223, 1)"></path><path d="M34.5 540.5L34.5 586.5" stroke-width="3.83" stroke="rgba(97, 175, 223, 1)"></path><path d="M28.75 540.5 a5.75 5.75 0 1 0 11.5 0 a5.75 5.75 0 1 0 -11.5 0zM28.75 586.5 a5.75 5.75 0 1 0 11.5 0 a5.75 5.75 0 1 0 -11.5 0z" fill="rgba(97, 175, 223, 1)"></path><path d="M80.5 103.5L34.5 57.5L11.5 57.5" stroke-width="3.83" stroke="rgba(97, 175, 223, 1)"></path><path d="M74.75 103.5 a5.75 5.75 0 1 0 11.5 0 a5.75 5.75 0 1 0 -11.5 0zM5.75 57.5 a5.75 5.75 0 1 0 11.5 0 a5.75 5.75 0 1 0 -11.5 0z" fill="rgba(97, 175, 223, 1)"></path><path d="M218.5 57.5L195.5 34.5L195.5 11.5" stroke-width="3.83" stroke="rgba(97, 175, 223, 1)"></path><path d="M212.75 57.5 a5.75 5.75 0 1 0 11.5 0 a5.75 5.75 0 1 0 -11.5 0zM189.75 11.5 a5.75 5.75 0 1 0 11.5 0 a5.75 5.75 0 1 0 -11.5 0z" fill="rgba(97, 175, 223, 1)"></path><path d="M126.5 931.5L80.5 885.5" stroke-width="3.83" stroke="rgba(97, 175, 223, 1)"></path><path d="M120.75 931.5 a5.75 5.75 0 1 0 11.5 0 a5.75 5.75 0 1 0 -11.5 0zM74.75 885.5 a5.75 5.75 0 1 0 11.5 0 a5.75 5.75 0 1 0 -11.5 0z" fill="rgba(97, 175, 223, 1)"></path><path d="M172.5 1023.5L103.5 1023.5L80.5 1046.5L11.5 1046.5" stroke-width="3.83" stroke="rgba(97, 175, 223, 1)"></path><path d="M166.75 1023.5 a5.75 5.75 0 1 0 11.5 0 a5.75 5.75 0 1 0 -11.5 0zM5.75 1046.5 a5.75 5.75 0 1 0 11.5 0 a5.75 5.75 0 1 0 -11.5 0z" fill="rgba(97, 175, 223, 1)"></path><path d="M172.5 80.5L172.5 126.5" stroke-width="3.83" stroke="rgba(97, 175, 223, 1)"></path><path d="M166.75 80.5 a5.75 5.75 0 1 0 11.5 0 a5.75 5.75 0 1 0 -11.5 0zM166.75 126.5 a5.75 5.75 0 1 0 11.5 0 a5.75 5.75 0 1 0 -11.5 0z" fill="rgba(97, 175, 223, 1)"></path><path d="M195.5 57.5L195.5 103.5" stroke-width="3.83" stroke="rgba(97, 175, 223, 1)"></path><path d="M189.75 57.5 a5.75 5.75 0 1 0 11.5 0 a5.75 5.75 0 1 0 -11.5 0zM189.75 103.5 a5.75 5.75 0 1 0 11.5 0 a5.75 5.75 0 1 0 -11.5 0z" fill="rgba(97, 175, 223, 1)"></path><path d="M172.5 34.5L172.5 57.5L149.5 80.5" stroke-width="3.83" stroke="rgba(97, 175, 223, 1)"></path><path d="M166.75 34.5 a5.75 5.75 0 1 0 11.5 0 a5.75 5.75 0 1 0 -11.5 0zM143.75 80.5 a5.75 5.75 0 1 0 11.5 0 a5.75 5.75 0 1 0 -11.5 0z" fill="rgba(97, 175, 223, 1)"></path><path d="M172.5 586.5L172.5 448.5L149.5 425.5L126.5 425.5L103.5 448.5L103.5 540.5" stroke-width="3.83" stroke="rgba(97, 175, 223, 1)"></path><path d="M166.75 586.5 a5.75 5.75 0 1 0 11.5 0 a5.75 5.75 0 1 0 -11.5 0zM97.75 540.5 a5.75 5.75 0 1 0 11.5 0 a5.75 5.75 0 1 0 -11.5 0z" fill="rgba(97, 175, 223, 1)"></path><path d="M80.5 724.5L80.5 701.5L34.5 655.5L11.5 655.5" stroke-width="3.83" stroke="rgba(97, 175, 223, 1)"></path><path d="M74.75 724.5 a5.75 5.75 0 1 0 11.5 0 a5.75 5.75 0 1 0 -11.5 0zM5.75 655.5 a5.75 5.75 0 1 0 11.5 0 a5.75 5.75 0 1 0 -11.5 0z" fill="rgba(97, 175, 223, 1)"></path><path d="M195.5 471.5L195.5 402.5" stroke-width="3.83" stroke="rgba(97, 175, 223, 1)"></path><path d="M189.75 471.5 a5.75 5.75 0 1 0 11.5 0 a5.75 5.75 0 1 0 -11.5 0zM189.75 402.5 a5.75 5.75 0 1 0 11.5 0 a5.75 5.75 0 1 0 -11.5 0z" fill="rgba(97, 175, 223, 1)"></path><path d="M57.5 1023.5L11.5 1023.5" stroke-width="3.83" stroke="rgba(97, 175, 223, 1)"></path><path d="M51.75 1023.5 a5.75 5.75 0 1 0 11.5 0 a5.75 5.75 0 1 0 -11.5 0zM5.75 1023.5 a5.75 5.75 0 1 0 11.5 0 a5.75 5.75 0 1 0 -11.5 0z" fill="rgba(97, 175, 223, 1)"></path><path d="M11.5 724.5L57.5 724.5" stroke-width="3.83" stroke="rgba(97, 175, 223, 1)"></path><path d="M5.75 724.5 a5.75 5.75 0 1 0 11.5 0 a5.75 5.75 0 1 0 -11.5 0zM51.75 724.5 a5.75 5.75 0 1 0 11.5 0 a5.75 5.75 0 1 0 -11.5 0z" fill="rgba(97, 175, 223, 1)"></path><path d="M126.5 310.5L149.5 310.5L172.5 287.5" stroke-width="3.83" stroke="rgba(97, 175, 223, 1)"></path><path d="M120.75 310.5 a5.75 5.75 0 1 0 11.5 0 a5.75 5.75 0 1 0 -11.5 0zM166.75 287.5 a5.75 5.75 0 1 0 11.5 0 a5.75 5.75 0 1 0 -11.5 0z" fill="rgba(97, 175, 223, 1)"></path><path d="M241.5 540.5L241.5 678.5" stroke-width="3.83" stroke="rgba(97, 175, 223, 1)"></path><path d="M235.75 540.5 a5.75 5.75 0 1 0 11.5 0 a5.75 5.75 0 1 0 -11.5 0zM235.75 678.5 a5.75 5.75 0 1 0 11.5 0 a5.75 5.75 0 1 0 -11.5 0z" fill="rgba(97, 175, 223, 1)"></path><path d="M80.5 126.5L34.5 126.5" stroke-width="3.83" stroke="rgba(97, 175, 223, 1)"></path><path d="M74.75 126.5 a5.75 5.75 0 1 0 11.5 0 a5.75 5.75 0 1 0 -11.5 0zM28.75 126.5 a5.75 5.75 0 1 0 11.5 0 a5.75 5.75 0 1 0 -11.5 0z" fill="rgba(97, 175, 223, 1)"></path><path d="M195.5 609.5L172.5 632.5L172.5 655.5" stroke-width="3.83" stroke="rgba(97, 175, 223, 1)"></path><path d="M189.75 609.5 a5.75 5.75 0 1 0 11.5 0 a5.75 5.75 0 1 0 -11.5 0zM166.75 655.5 a5.75 5.75 0 1 0 11.5 0 a5.75 5.75 0 1 0 -11.5 0z" fill="rgba(97, 175, 223, 1)"></path><path d="M103.5 1046.5L172.5 1046.5" stroke-width="3.83" stroke="rgba(97, 175, 223, 1)"></path><path d="M97.75 1046.5 a5.75 5.75 0 1 0 11.5 0 a5.75 5.75 0 1 0 -11.5 0zM166.75 1046.5 a5.75 5.75 0 1 0 11.5 0 a5.75 5.75 0 1 0 -11.5 0z" fill="rgba(97, 175, 223, 1)"></path><path d="M126.5 517.5L126.5 448.5" stroke-width="3.83" stroke="rgba(97, 175, 223, 1)"></path><path d="M120.75 517.5 a5.75 5.75 0 1 0 11.5 0 a5.75 5.75 0 1 0 -11.5 0zM120.75 448.5 a5.75 5.75 0 1 0 11.5 0 a5.75 5.75 0 1 0 -11.5 0z" fill="rgba(97, 175, 223, 1)"></path><path d="M11.5 885.5L11.5 931.5" stroke-width="3.83" stroke="rgba(97, 175, 223, 1)"></path><path d="M5.75 885.5 a5.75 5.75 0 1 0 11.5 0 a5.75 5.75 0 1 0 -11.5 0zM5.75 931.5 a5.75 5.75 0 1 0 11.5 0 a5.75 5.75 0 1 0 -11.5 0z" fill="rgba(97, 175, 223, 1)"></path><path d="M126.5 264.5L103.5 287.5L103.5 310.5L126.5 333.5" stroke-width="3.83" stroke="rgba(97, 175, 223, 1)"></path><path d="M120.75 264.5 a5.75 5.75 0 1 0 11.5 0 a5.75 5.75 0 1 0 -11.5 0zM120.75 333.5 a5.75 5.75 0 1 0 11.5 0 a5.75 5.75 0 1 0 -11.5 0z" fill="rgba(97, 175, 223, 1)"></path><path d="M126.5 885.5L149.5 908.5L172.5 908.5" stroke-width="3.83" stroke="rgba(97, 175, 223, 1)"></path><path d="M120.75 885.5 a5.75 5.75 0 1 0 11.5 0 a5.75 5.75 0 1 0 -11.5 0zM166.75 908.5 a5.75 5.75 0 1 0 11.5 0 a5.75 5.75 0 1 0 -11.5 0z" fill="rgba(97, 175, 223, 1)"></path><path d="M103.5 609.5L149.5 609.5" stroke-width="3.83" stroke="rgba(97, 175, 223, 1)"></path><path d="M97.75 609.5 a5.75 5.75 0 1 0 11.5 0 a5.75 5.75 0 1 0 -11.5 0zM143.75 609.5 a5.75 5.75 0 1 0 11.5 0 a5.75 5.75 0 1 0 -11.5 0z" fill="rgba(97, 175, 223, 1)"></path><path d="M126.5 218.5L126.5 172.5" stroke-width="3.83" stroke="rgba(97, 175, 223, 1)"></path><path d="M120.75 218.5 a5.75 5.75 0 1 0 11.5 0 a5.75 5.75 0 1 0 -11.5 0zM120.75 172.5 a5.75 5.75 0 1 0 11.5 0 a5.75 5.75 0 1 0 -11.5 0z" fill="rgba(97, 175, 223, 1)"></path><path d="M172.5 11.5L149.5 34.5L149.5 57.5" stroke-width="3.83" stroke="rgba(97, 175, 223, 1)"></path><path d="M166.75 11.5 a5.75 5.75 0 1 0 11.5 0 a5.75 5.75 0 1 0 -11.5 0zM143.75 57.5 a5.75 5.75 0 1 0 11.5 0 a5.75 5.75 0 1 0 -11.5 0z" fill="rgba(97, 175, 223, 1)"></path><path d="M34.5 264.5L34.5 310.5" stroke-width="3.83" stroke="rgba(97, 175, 223, 1)"></path><path d="M28.75 264.5 a5.75 5.75 0 1 0 11.5 0 a5.75 5.75 0 1 0 -11.5 0zM28.75 310.5 a5.75 5.75 0 1 0 11.5 0 a5.75 5.75 0 1 0 -11.5 0z" fill="rgba(97, 175, 223, 1)"></path><path d="M34.5 402.5L34.5 356.5" stroke-width="3.83" stroke="rgba(97, 175, 223, 1)"></path><path d="M28.75 402.5 a5.75 5.75 0 1 0 11.5 0 a5.75 5.75 0 1 0 -11.5 0zM28.75 356.5 a5.75 5.75 0 1 0 11.5 0 a5.75 5.75 0 1 0 -11.5 0z" fill="rgba(97, 175, 223, 1)"></path></g></g><defs><mask id="SvgjsMask1006"><rect width="250" height="1080" fill="#ffffff"></rect></mask><mask id="SvgjsMask1007"><rect width="250" height="1080" fill="white"></rect><path d="M192.62 149.5 a2.88 2.88 0 1 0 5.76 0 a2.88 2.88 0 1 0 -5.76 0zM238.62 149.5 a2.88 2.88 0 1 0 5.76 0 a2.88 2.88 0 1 0 -5.76 0z" fill="black"></path><path d="M123.62 34.5 a2.88 2.88 0 1 0 5.76 0 a2.88 2.88 0 1 0 -5.76 0zM8.62 11.5 a2.88 2.88 0 1 0 5.76 0 a2.88 2.88 0 1 0 -5.76 0z" fill="black"></path><path d="M100.62 402.5 a2.88 2.88 0 1 0 5.76 0 a2.88 2.88 0 1 0 -5.76 0zM8.62 34.5 a2.88 2.88 0 1 0 5.76 0 a2.88 2.88 0 1 0 -5.76 0z" fill="black"></path><path d="M192.62 1046.5 a2.88 2.88 0 1 0 5.76 0 a2.88 2.88 0 1 0 -5.76 0zM8.62 1069.5 a2.88 2.88 0 1 0 5.76 0 a2.88 2.88 0 1 0 -5.76 0z" fill="black"></path><path d="M100.62 977.5 a2.88 2.88 0 1 0 5.76 0 a2.88 2.88 0 1 0 -5.76 0zM8.62 977.5 a2.88 2.88 0 1 0 5.76 0 a2.88 2.88 0 1 0 -5.76 0z" fill="black"></path><path d="M31.62 448.5 a2.88 2.88 0 1 0 5.76 0 a2.88 2.88 0 1 0 -5.76 0zM238.62 885.5 a2.88 2.88 0 1 0 5.76 0 a2.88 2.88 0 1 0 -5.76 0z" fill="black"></path><path d="M123.62 655.5 a2.88 2.88 0 1 0 5.76 0 a2.88 2.88 0 1 0 -5.76 0zM238.62 793.5 a2.88 2.88 0 1 0 5.76 0 a2.88 2.88 0 1 0 -5.76 0z" fill="black"></path><path d="M238.62 1046.5 a2.88 2.88 0 1 0 5.76 0 a2.88 2.88 0 1 0 -5.76 0zM54.62 655.5 a2.88 2.88 0 1 0 5.76 0 a2.88 2.88 0 1 0 -5.76 0z" fill="black"></path><path d="M169.62 793.5 a2.88 2.88 0 1 0 5.76 0 a2.88 2.88 0 1 0 -5.76 0zM123.62 724.5 a2.88 2.88 0 1 0 5.76 0 a2.88 2.88 0 1 0 -5.76 0z" fill="black"></path><path d="M54.62 149.5 a2.88 2.88 0 1 0 5.76 0 a2.88 2.88 0 1 0 -5.76 0zM8.62 448.5 a2.88 2.88 0 1 0 5.76 0 a2.88 2.88 0 1 0 -5.76 0z" fill="black"></path><path d="M146.62 103.5 a2.88 2.88 0 1 0 5.76 0 a2.88 2.88 0 1 0 -5.76 0zM77.62 34.5 a2.88 2.88 0 1 0 5.76 0 a2.88 2.88 0 1 0 -5.76 0z" fill="black"></path><path d="M215.62 747.5 a2.88 2.88 0 1 0 5.76 0 a2.88 2.88 0 1 0 -5.76 0zM123.62 678.5 a2.88 2.88 0 1 0 5.76 0 a2.88 2.88 0 1 0 -5.76 0z" fill="black"></path><path d="M215.62 448.5 a2.88 2.88 0 1 0 5.76 0 a2.88 2.88 0 1 0 -5.76 0zM238.62 724.5 a2.88 2.88 0 1 0 5.76 0 a2.88 2.88 0 1 0 -5.76 0z" fill="black"></path><path d="M77.62 241.5 a2.88 2.88 0 1 0 5.76 0 a2.88 2.88 0 1 0 -5.76 0zM54.62 586.5 a2.88 2.88 0 1 0 5.76 0 a2.88 2.88 0 1 0 -5.76 0z" fill="black"></path><path d="M215.62 862.5 a2.88 2.88 0 1 0 5.76 0 a2.88 2.88 0 1 0 -5.76 0zM100.62 747.5 a2.88 2.88 0 1 0 5.76 0 a2.88 2.88 0 1 0 -5.76 0z" fill="black"></path><path d="M169.62 862.5 a2.88 2.88 0 1 0 5.76 0 a2.88 2.88 0 1 0 -5.76 0zM238.62 954.5 a2.88 2.88 0 1 0 5.76 0 a2.88 2.88 0 1 0 -5.76 0z" fill="black"></path><path d="M192.62 885.5 a2.88 2.88 0 1 0 5.76 0 a2.88 2.88 0 1 0 -5.76 0zM238.62 931.5 a2.88 2.88 0 1 0 5.76 0 a2.88 2.88 0 1 0 -5.76 0z" fill="black"></path><path d="M192.62 1023.5 a2.88 2.88 0 1 0 5.76 0 a2.88 2.88 0 1 0 -5.76 0zM8.62 1000.5 a2.88 2.88 0 1 0 5.76 0 a2.88 2.88 0 1 0 -5.76 0z" fill="black"></path><path d="M31.62 241.5 a2.88 2.88 0 1 0 5.76 0 a2.88 2.88 0 1 0 -5.76 0zM215.62 241.5 a2.88 2.88 0 1 0 5.76 0 a2.88 2.88 0 1 0 -5.76 0z" fill="black"></path><path d="M123.62 862.5 a2.88 2.88 0 1 0 5.76 0 a2.88 2.88 0 1 0 -5.76 0zM54.62 862.5 a2.88 2.88 0 1 0 5.76 0 a2.88 2.88 0 1 0 -5.76 0z" fill="black"></path><path d="M146.62 218.5 a2.88 2.88 0 1 0 5.76 0 a2.88 2.88 0 1 0 -5.76 0zM31.62 425.5 a2.88 2.88 0 1 0 5.76 0 a2.88 2.88 0 1 0 -5.76 0z" fill="black"></path><path d="M238.62 977.5 a2.88 2.88 0 1 0 5.76 0 a2.88 2.88 0 1 0 -5.76 0zM192.62 977.5 a2.88 2.88 0 1 0 5.76 0 a2.88 2.88 0 1 0 -5.76 0z" fill="black"></path><path d="M54.62 931.5 a2.88 2.88 0 1 0 5.76 0 a2.88 2.88 0 1 0 -5.76 0zM8.62 954.5 a2.88 2.88 0 1 0 5.76 0 a2.88 2.88 0 1 0 -5.76 0z" fill="black"></path><path d="M238.62 379.5 a2.88 2.88 0 1 0 5.76 0 a2.88 2.88 0 1 0 -5.76 0zM77.62 632.5 a2.88 2.88 0 1 0 5.76 0 a2.88 2.88 0 1 0 -5.76 0z" fill="black"></path><path d="M31.62 80.5 a2.88 2.88 0 1 0 5.76 0 a2.88 2.88 0 1 0 -5.76 0zM31.62 149.5 a2.88 2.88 0 1 0 5.76 0 a2.88 2.88 0 1 0 -5.76 0z" fill="black"></path><path d="M192.62 126.5 a2.88 2.88 0 1 0 5.76 0 a2.88 2.88 0 1 0 -5.76 0zM238.62 11.5 a2.88 2.88 0 1 0 5.76 0 a2.88 2.88 0 1 0 -5.76 0z" fill="black"></path><path d="M146.62 563.5 a2.88 2.88 0 1 0 5.76 0 a2.88 2.88 0 1 0 -5.76 0zM100.62 563.5 a2.88 2.88 0 1 0 5.76 0 a2.88 2.88 0 1 0 -5.76 0z" fill="black"></path><path d="M146.62 839.5 a2.88 2.88 0 1 0 5.76 0 a2.88 2.88 0 1 0 -5.76 0zM54.62 839.5 a2.88 2.88 0 1 0 5.76 0 a2.88 2.88 0 1 0 -5.76 0z" fill="black"></path><path d="M31.62 540.5 a2.88 2.88 0 1 0 5.76 0 a2.88 2.88 0 1 0 -5.76 0zM31.62 586.5 a2.88 2.88 0 1 0 5.76 0 a2.88 2.88 0 1 0 -5.76 0z" fill="black"></path><path d="M77.62 103.5 a2.88 2.88 0 1 0 5.76 0 a2.88 2.88 0 1 0 -5.76 0zM8.62 57.5 a2.88 2.88 0 1 0 5.76 0 a2.88 2.88 0 1 0 -5.76 0z" fill="black"></path><path d="M215.62 57.5 a2.88 2.88 0 1 0 5.76 0 a2.88 2.88 0 1 0 -5.76 0zM192.62 11.5 a2.88 2.88 0 1 0 5.76 0 a2.88 2.88 0 1 0 -5.76 0z" fill="black"></path><path d="M123.62 931.5 a2.88 2.88 0 1 0 5.76 0 a2.88 2.88 0 1 0 -5.76 0zM77.62 885.5 a2.88 2.88 0 1 0 5.76 0 a2.88 2.88 0 1 0 -5.76 0z" fill="black"></path><path d="M169.62 1023.5 a2.88 2.88 0 1 0 5.76 0 a2.88 2.88 0 1 0 -5.76 0zM8.62 1046.5 a2.88 2.88 0 1 0 5.76 0 a2.88 2.88 0 1 0 -5.76 0z" fill="black"></path><path d="M169.62 80.5 a2.88 2.88 0 1 0 5.76 0 a2.88 2.88 0 1 0 -5.76 0zM169.62 126.5 a2.88 2.88 0 1 0 5.76 0 a2.88 2.88 0 1 0 -5.76 0z" fill="black"></path><path d="M192.62 57.5 a2.88 2.88 0 1 0 5.76 0 a2.88 2.88 0 1 0 -5.76 0zM192.62 103.5 a2.88 2.88 0 1 0 5.76 0 a2.88 2.88 0 1 0 -5.76 0z" fill="black"></path><path d="M169.62 34.5 a2.88 2.88 0 1 0 5.76 0 a2.88 2.88 0 1 0 -5.76 0zM146.62 80.5 a2.88 2.88 0 1 0 5.76 0 a2.88 2.88 0 1 0 -5.76 0z" fill="black"></path><path d="M169.62 586.5 a2.88 2.88 0 1 0 5.76 0 a2.88 2.88 0 1 0 -5.76 0zM100.62 540.5 a2.88 2.88 0 1 0 5.76 0 a2.88 2.88 0 1 0 -5.76 0z" fill="black"></path><path d="M77.62 724.5 a2.88 2.88 0 1 0 5.76 0 a2.88 2.88 0 1 0 -5.76 0zM8.62 655.5 a2.88 2.88 0 1 0 5.76 0 a2.88 2.88 0 1 0 -5.76 0z" fill="black"></path><path d="M192.62 471.5 a2.88 2.88 0 1 0 5.76 0 a2.88 2.88 0 1 0 -5.76 0zM192.62 402.5 a2.88 2.88 0 1 0 5.76 0 a2.88 2.88 0 1 0 -5.76 0z" fill="black"></path><path d="M54.62 1023.5 a2.88 2.88 0 1 0 5.76 0 a2.88 2.88 0 1 0 -5.76 0zM8.62 1023.5 a2.88 2.88 0 1 0 5.76 0 a2.88 2.88 0 1 0 -5.76 0z" fill="black"></path><path d="M8.62 724.5 a2.88 2.88 0 1 0 5.76 0 a2.88 2.88 0 1 0 -5.76 0zM54.62 724.5 a2.88 2.88 0 1 0 5.76 0 a2.88 2.88 0 1 0 -5.76 0z" fill="black"></path><path d="M123.62 310.5 a2.88 2.88 0 1 0 5.76 0 a2.88 2.88 0 1 0 -5.76 0zM169.62 287.5 a2.88 2.88 0 1 0 5.76 0 a2.88 2.88 0 1 0 -5.76 0z" fill="black"></path><path d="M238.62 540.5 a2.88 2.88 0 1 0 5.76 0 a2.88 2.88 0 1 0 -5.76 0zM238.62 678.5 a2.88 2.88 0 1 0 5.76 0 a2.88 2.88 0 1 0 -5.76 0z" fill="black"></path><path d="M77.62 126.5 a2.88 2.88 0 1 0 5.76 0 a2.88 2.88 0 1 0 -5.76 0zM31.62 126.5 a2.88 2.88 0 1 0 5.76 0 a2.88 2.88 0 1 0 -5.76 0z" fill="black"></path><path d="M192.62 609.5 a2.88 2.88 0 1 0 5.76 0 a2.88 2.88 0 1 0 -5.76 0zM169.62 655.5 a2.88 2.88 0 1 0 5.76 0 a2.88 2.88 0 1 0 -5.76 0z" fill="black"></path><path d="M100.62 1046.5 a2.88 2.88 0 1 0 5.76 0 a2.88 2.88 0 1 0 -5.76 0zM169.62 1046.5 a2.88 2.88 0 1 0 5.76 0 a2.88 2.88 0 1 0 -5.76 0z" fill="black"></path><path d="M123.62 517.5 a2.88 2.88 0 1 0 5.76 0 a2.88 2.88 0 1 0 -5.76 0zM123.62 448.5 a2.88 2.88 0 1 0 5.76 0 a2.88 2.88 0 1 0 -5.76 0z" fill="black"></path><path d="M8.62 885.5 a2.88 2.88 0 1 0 5.76 0 a2.88 2.88 0 1 0 -5.76 0zM8.62 931.5 a2.88 2.88 0 1 0 5.76 0 a2.88 2.88 0 1 0 -5.76 0z" fill="black"></path><path d="M123.62 264.5 a2.88 2.88 0 1 0 5.76 0 a2.88 2.88 0 1 0 -5.76 0zM123.62 333.5 a2.88 2.88 0 1 0 5.76 0 a2.88 2.88 0 1 0 -5.76 0z" fill="black"></path><path d="M123.62 885.5 a2.88 2.88 0 1 0 5.76 0 a2.88 2.88 0 1 0 -5.76 0zM169.62 908.5 a2.88 2.88 0 1 0 5.76 0 a2.88 2.88 0 1 0 -5.76 0z" fill="black"></path><path d="M100.62 609.5 a2.88 2.88 0 1 0 5.76 0 a2.88 2.88 0 1 0 -5.76 0zM146.62 609.5 a2.88 2.88 0 1 0 5.76 0 a2.88 2.88 0 1 0 -5.76 0z" fill="black"></path><path d="M123.62 218.5 a2.88 2.88 0 1 0 5.76 0 a2.88 2.88 0 1 0 -5.76 0zM123.62 172.5 a2.88 2.88 0 1 0 5.76 0 a2.88 2.88 0 1 0 -5.76 0z" fill="black"></path><path d="M169.62 11.5 a2.88 2.88 0 1 0 5.76 0 a2.88 2.88 0 1 0 -5.76 0zM146.62 57.5 a2.88 2.88 0 1 0 5.76 0 a2.88 2.88 0 1 0 -5.76 0z" fill="black"></path><path d="M31.62 264.5 a2.88 2.88 0 1 0 5.76 0 a2.88 2.88 0 1 0 -5.76 0zM31.62 310.5 a2.88 2.88 0 1 0 5.76 0 a2.88 2.88 0 1 0 -5.76 0z" fill="black"></path><path d="M31.62 402.5 a2.88 2.88 0 1 0 5.76 0 a2.88 2.88 0 1 0 -5.76 0zM31.62 356.5 a2.88 2.88 0 1 0 5.76 0 a2.88 2.88 0 1 0 -5.76 0z" fill="black"></path></mask></defs></svg>